<?xml version="1.0" encoding="UTF-8"?>
<svg style="background:#000" id="Layer_1" xmlns="http://www.w3.org/2000/svg" version="1.1" viewBox="250 150 700 600">
  <!-- Generator: Adobe Illustrator 30.0.0, SVG Export Plug-In . SVG Version: 2.1.1 Build 123)  -->
  
  <path fill="#00ff41" d="M294.4,684.66c34.77,0,57.77-25.8,77.96-51.6l11.78-15.14c1.12-6.17,1.68-15.71,1.68-28.61v-70.67l-31.97,40.38c-21.88-11.21-32.53-28.61-32.53-52.16,0-6.17-1.12-24.12-1.12-57.77v-111.05c26.36-10.65,49.35-25.8,70.11-50.48.56-.56,3.36-.56,8.41-.56,16.83,0,25.8,8.98,26.92,27.48,2.24,15.7,3.92,56.08,2.24,123.95-2.24,97.03-2.24,139.09-2.24,127.31,0,2.8-.56,7.86-1.12,16.27-1.68,17.38,5.61,26.36,19.62,26.36-3.36,1.68-22.99,19.06-58.88,52.72-25.8,24.12-52.72,35.89-80.2,35.89-20.76,0-35.89-6.17-46.56-19.07,12.91,4.49,24.68,6.74,35.89,6.74ZM360.02,375.63l.56,103.2c0,7.85,7.85,22.44,16.27,22.44,3.36,0,6.17-1.12,8.97-2.81l1.12-133.48c0-28.04-4.49-42.06-13.47-42.06-8.41,0-12.9,6.17-12.9,17.94-.56,2.8-1.12,14.02-.56,34.77Z"/>
  <path fill="#00ff41" d="M442.46,345.34l80.76-58.33c4.49,1.68,7.3,5.05,8.98,9.54,2.24,6.73,5.05,21.87,5.61,45.99,0,5.61,2.24,11.77,7.29,17.95l-2.8,1.68-10.09,8.41c-23,19.06-40.39,43.18-52.16,71.79v31.97c0,29.17,7.29,41.5,21.88,37.58,8.41-2.24,15.7-8.41,22.99-19.63l5.62-12.34c6.73-14.58,3.92-35.33-4.49-60.01l16.27,26.92v.56c3.92,11.77,4.49,24.12,1.68,37.58-5.05,25.24-18.51,49.35-42.06,72.91l-4.49,4.49-11.78-5.61c-21.87-10.09-37.02-22.44-41.5-42.06-.56-6.17-1.68-16.83-1.68-34.77v-131.8c-.56-1.12-.56-2.24,0-2.8ZM480.03,418.82c7.29-7.29,14.58-19.62,21.88-37.58,0-20.19-1.68-34.21-4.49-42.06-2.81-3.92-5.62-5.61-8.98-5.61-2.8-1.12-4.49-1.12-6.17,0-1.68,0-2.24.56-2.24,1.12v84.12Z"/>
  <path fill="#00ff41" d="M553.49,345.91v-60.57l-.56-61.13c1.68-1.68,11.21-17.95,28.61-47.67,11.77-21.87,27.48-32.53,47.67-32.53,3.92,0,9.53,1.12,16.83,2.8-26.36,7.29-42.63,21.32-50.48,42.07-2.8,7.29-3.36,18.51-3.36,32.53,0,10.65-.56,42.06,1.12,95.9l42.06-31.4c9.54,5.61,14.59,24.68,15.15,56.65,0,7.85,2.24,14.03,6.17,17.95l-.56,1.12c-11.77,8.41-24.68,19.62-35.89,33.65l44.87,123.94c28.61,80.76,63.94,130.12,102.08,152.55,10.65,6.17,25.8,11.22,50.47,19.63-3.92,1.68-7.29,1.68-10.09,2.24-31.41,2.24-63.94-12.34-99.83-50.48-28.6-31.4-49.35-62.81-66.17-97.02-10.66-21.88-25.8-54.41-48.24-101.52v13.46c-1.68,6.74-1.12,11.22-1.12,13.47v28.04c0,14.03,6.73,20.76,20.76,19.07h2.8q.56,0,.56.56l-31.41,39.82c-15.71-8.41-25.8-20.75-30.29-35.89-1.12-6.73-1.68-17.94-1.68-34.21v-20.75c0-24.12.56-34.77.56-32.53v-87.5c-1.12,0-1.68-.56-1.68-1.12l1.68-1.12ZM593.31,417.13c8.41-8.97,14.03-20.75,20.19-35.89,1.12-31.41-3.36-47.67-13.47-48.79-2.8,0-4.49.56-6.17,1.12h-.56v83.56Z"/>
  <path fill="#00ff41" d="M667.34,345.91v-60.57l-.56-61.13c1.68-1.68,11.21-17.95,28.61-47.67,11.77-21.87,27.48-32.53,47.67-32.53,3.92,0,9.53,1.12,16.83,2.8-26.36,7.29-42.63,21.32-50.48,42.07-2.8,7.29-3.36,18.51-3.36,32.53,0,10.65-.56,42.06,1.12,95.9l42.06-31.4c9.54,5.61,14.59,24.68,15.15,56.65,0,7.85,2.24,14.03,6.17,17.95l-.56,1.12c-11.77,8.41-24.68,19.62-35.89,33.65l44.87,123.94c28.61,80.76,63.94,130.12,102.08,152.55,10.65,6.17,25.8,11.22,50.47,19.63-3.92,1.68-7.29,1.68-10.09,2.24-31.41,2.24-63.94-12.34-99.83-50.48-28.6-31.4-49.35-62.81-66.17-97.02-10.66-21.88-25.8-54.41-48.24-101.52v13.46c-1.68,6.74-1.12,11.22-1.12,13.47v28.04c0,14.03,6.73,20.76,20.76,19.07h2.8q.56,0,.56.56l-31.41,39.82c-15.71-8.41-25.8-20.75-30.29-35.89-1.12-6.73-1.68-17.94-1.68-34.21v-20.75c0-24.12.56-34.77.56-32.53v-87.5c-1.12,0-1.68-.56-1.68-1.12l1.68-1.12ZM707.16,417.13c8.41-8.97,14.03-20.75,20.19-35.89,1.12-31.41-3.36-47.67-13.47-48.79-2.8,0-4.49.56-6.17,1.12h-.56v83.56Z"/>
  <path fill="#00ff41" d="M849.6,287.58c.56-.56,3.36-.56,7.29-.56,15.15,0,25.8,8.98,27.48,26.92,1.12,12.9,1.68,25.8,1.68,38.69l-2.24,152.56c.56,6.17,2.8,11.77,6.73,15.7-5.05,3.36-5.05,7.29-77.96,45.99-21.32-10.09-31.97-27.47-31.97-52.16l-1.12-154.23v-22.44c26.36-10.65,49.35-25.8,70.11-50.48ZM819.88,502.39c0,20.75,6.17,36.46,17.95,36.46,4.49,0,7.85,0,15.14-6.74-7.29-9.53-9.53-14.58-9.53-32.53,0-58.32,1.68-53.84,1.68-134.6,0-28.04-4.49-42.06-12.91-42.06-4.49,0-13.46,4.49-13.46,17.94l1.12,161.53Z"/>
</svg>