<?xml version="1.0" encoding="UTF-8"?>
<svg id="Layer_1" xmlns="http://www.w3.org/2000/svg" version="1.1" viewBox="0 0 841.89 595.28">
  <!-- Generator: Adobe Illustrator 30.2.1, SVG Export Plug-In . SVG Version: 2.1.1 Build 1)  -->
  <g>
    <path d="M163.25,230.29c0,.65.08,31.8.24,93.46.16,61.66.24,93.29.24,94.91,0,18.89-8.72,36.15-26.15,51.81-14.85,13.39-29.78,20.09-44.79,20.09-2.58,0-5.08-.16-7.51-.48-12.75-1.94-23.57-8.23-32.44-18.89-5.97-7.26-8.96-14.53-8.96-21.79,0-4.84,1.29-9.68,3.87-14.53,4.19-8.07,10.57-12.11,19.13-12.11h1.46c2.26,0,4.52.32,6.78.97.8.32,1.61.65,2.42.97l.73.24h.24c-5.81,3.88-9.04,8.55-9.68,14.04v1.7c0,4.36,1.61,8.15,4.84,11.38,3.55,3.55,7.91,5.33,13.07,5.33h1.21c6.45-.33,12.59-3.47,18.4-9.44,8.23-8.4,12.35-18.32,12.35-29.78v-51.57l-42.61,31.48c-21.95-8.72-34.71-23.08-38.25-43.1h-.24c-.65-3.23-1.05-7.02-1.21-11.38h.24v-85.22c0-8.72,4.51-17.92,13.56-27.6,7.42-7.91,17.51-15.9,30.26-23.97,14.69-9.2,29.38-16.87,44.07-23,2.58.97,5.16,2.18,7.75,3.63,18.56,9.52,28.89,23.81,30.99,42.85ZM118.7,346.75v-76.75c-.16-10.97-.24-20.17-.24-27.6,0-5.97-1.29-11.54-3.88-16.71-2.26-2.74-5.49-5.32-9.68-7.75-15.5,11.78-23.24,24.29-23.24,37.53v89.58c0,6.94,4.68,13.16,14.04,18.65l23-16.95Z"/>
    <path d="M227.41,311.64c1.61,5.65,3.71,11.06,6.3,16.22,3.87,7.1,8.47,13.16,13.8,18.16,11.46,10.5,25.91,15.74,43.34,15.74,5.49,0,11.3-.56,17.43-1.7l-49.39,37.77c-2.1-.16-4.28-.4-6.54-.73-2.91-.48-5.81-1.13-8.72-1.94-7.75-2.26-14.85-5.65-21.31-10.17-18.4-12.91-30.1-33.97-35.1-63.19-1.62-8.72-2.42-17.67-2.42-26.88,0-10.81,1.13-21.87,3.39-33.17,8.39-41.97,31.72-67.95,69.97-77.96l48.42,67.06-1.21.97-77.96,59.8ZM232.98,216.25c-7.26,12.43-10.89,28.73-10.89,48.91,0,8.72.72,18.24,2.18,28.57l41.64-31.96-32.93-45.52Z"/>
    <path d="M326.92,160.81c0-5.17-.89-9.93-2.66-14.29-1.46-3.39-3.47-6.61-6.05-9.68-2.9-3.23-5.81-5.65-8.72-7.26l36.08-26.63h.24l.24.24.48.24,1.21.73,1.69.97c1.46.81,2.82,1.78,4.12,2.9,1.61,1.13,3.15,2.42,4.6,3.88,3.87,3.71,6.86,7.67,8.96,11.86,2.74,5.49,4.12,11.3,4.12,17.43v82.8l53.26-39.71.24.24.24-.48c1.29,2.26,2.82,4.36,4.6,6.3,2.42,2.58,5.08,4.68,7.99,6.3,5,3.07,10.57,4.6,16.7,4.6,3.39,0,6.94-.48,10.65-1.45-2.9,5.97-7.02,11.78-12.35,17.43-4.52,4.84-9.2,8.47-14.04,10.89-4.85,2.42-9.69,3.63-14.53,3.63-1.45,0-2.9-.08-4.36-.24,12.91,5.65,22.43,13.56,28.57,23.73,4.85,8.07,7.26,17.27,7.26,27.6v57.14c0,13.88,5.81,24.29,17.44,31.23l-35.83,26.63-.24-.24h-.24c-16.31-12.26-24.7-27.68-25.18-46.24v-69c0-6.78-4.68-12.91-14.04-18.4l-26.15,19.37v56.65c0,13.88,5.81,24.29,17.43,31.23l-36.08,26.63-.24-.24h-.24c-16.79-12.59-25.18-28.48-25.18-47.69v-189.09ZM416.02,230.53c-5.49-1.45-10.82-4.19-15.98-8.23l-28.81,21.31v20.09l44.79-33.17Z"/>
    <path d="M496.39,160.81c0-5.17-.89-9.93-2.66-14.29-1.45-3.39-3.47-6.61-6.05-9.68-2.91-3.23-5.81-5.65-8.72-7.26l36.08-26.63h.24l.24.24.49.24,1.21.73,1.7.97c1.46.81,2.82,1.78,4.12,2.9,1.61,1.13,3.14,2.42,4.6,3.88,3.87,3.71,6.86,7.67,8.96,11.86,2.74,5.49,4.11,11.3,4.11,17.43v82.8l53.27-39.71.24.24.25-.48c1.29,2.26,2.82,4.36,4.6,6.3,2.42,2.58,5.08,4.68,7.99,6.3,5,3.07,10.57,4.6,16.7,4.6,3.39,0,6.94-.48,10.65-1.45-2.9,5.97-7.02,11.78-12.35,17.43-4.52,4.84-9.2,8.47-14.04,10.89-4.85,2.42-9.69,3.63-14.53,3.63-1.46,0-2.91-.08-4.36-.24,12.91,5.65,22.43,13.56,28.57,23.73,4.85,8.07,7.26,17.27,7.26,27.6v57.14c0,13.88,5.81,24.29,17.44,31.23l-35.83,26.63-.24-.24h-.24c-16.31-12.26-24.7-27.68-25.18-46.24v-69c0-6.78-4.69-12.91-14.05-18.4l-26.15,19.37v56.65c0,13.88,5.81,24.29,17.44,31.23l-36.08,26.63-.25-.24h-.24c-16.79-12.59-25.18-28.48-25.18-47.69v-189.09ZM585.49,230.53c-5.49-1.45-10.82-4.19-15.98-8.23l-28.81,21.31v20.09l44.79-33.17Z"/>
    <path d="M776.03,362.97l-45.76,34.86c-2.1-.16-4.28-.4-6.54-.73-2.9-.48-5.81-1.13-8.72-1.94-7.74-2.26-14.85-5.65-21.3-10.17-18.4-12.91-30.11-33.9-35.11-62.95-1.61-8.72-2.42-17.59-2.42-26.63,0-10.81,1.13-21.87,3.39-33.17,3.71-18.4,10.41-33.81,20.09-46.24,12.27-15.49,28.89-25.99,49.87-31.48,35.67,10.33,53.51,51.33,53.51,122.99,0,16.3-.89,34.06-2.66,53.27l-4.36,2.18ZM741.16,313.33c-.32-64.07-12.59-96.2-36.8-96.36-7.26,12.43-10.89,28.49-10.89,48.18,0,11.94,1.29,25.1,3.88,39.46,1.45,11.3,5.97,22.12,13.56,32.44,7.9,10.82,17.99,18.08,30.26,21.79v-45.52Z"/>
  </g>
  <g>
    <path d="M773.18,146.17h-9.53v19.13h-4.65v-19.13h-9.53v-3.99h23.72v3.99Z"/>
    <path d="M805.18,165.3h-4.66v-18.26h-.14l-7.64,18.26h-3.91l-7.8-18.58h-.14v18.58h-4.47v-23.12h7.48l6.81,16.84h.14l6.78-16.84h7.54v23.12Z"/>
  </g>
  <g>
    <path d="M361.87,486.78h-12.51l-2.29,4.76h-4.91l11.1-22.45h4.82l11.1,22.45h-5.02l-2.29-4.76ZM351.12,483.09h8.98c-.8-1.66-1.57-3.27-2.3-4.84s-1.27-2.73-1.61-3.48l-.51-1.11h-.14c-1.18,2.61-2.65,5.75-4.42,9.43Z"/>
    <path d="M394.48,491.54h-3.62v-3.19c-1.9,2.53-4.78,3.79-8.63,3.79-1.97,0-3.76-.25-5.39-.74-1.63-.49-3.04-1.22-4.25-2.17s-2.15-2.19-2.82-3.71-1.01-3.25-1.01-5.2.33-3.69.98-5.2c.66-1.52,1.58-2.75,2.76-3.71,1.19-.96,2.58-1.68,4.18-2.17,1.6-.49,3.36-.74,5.3-.74s3.66.2,5.19.61c1.53.41,2.78.98,3.77,1.72.99.74,1.76,1.59,2.33,2.55s.91,2.02,1.04,3.18h-5.2c-.09-.41-.23-.8-.41-1.17s-.46-.75-.82-1.13-.8-.71-1.3-.99c-.51-.28-1.15-.5-1.94-.68-.79-.17-1.67-.26-2.64-.26-1.22,0-2.33.17-3.33.5-1,.33-1.87.82-2.61,1.47-.74.65-1.31,1.49-1.72,2.51-.41,1.02-.61,2.19-.61,3.5s.2,2.51.61,3.53c.41,1.02.99,1.86,1.75,2.51.76.65,1.65,1.14,2.69,1.47,1.03.33,2.19.5,3.47.5,2.17,0,3.83-.49,4.99-1.47,1.16-.98,1.84-2.29,2.06-3.92h-6.69v-3.47h11.9v12.07Z"/>
    <path d="M403.54,478.06h15.19v3.62h-15.19v6.08h16.08v3.78h-20.61v-22.45h20.21v3.78h-15.68v5.19Z"/>
    <path d="M446.84,469.09v22.45h-4.91l-13.82-16.46h-.14v16.46h-4.31v-22.45h5.11l13.6,16.2h.14v-16.2h4.33Z"/>
    <path d="M468.47,473.76c-1.21-.95-2.92-1.43-5.12-1.43-1.13,0-2.17.17-3.12.5-.95.33-1.79.82-2.5,1.47-.72.65-1.28,1.49-1.68,2.51-.4,1.02-.61,2.19-.61,3.5s.2,2.48.61,3.5c.4,1.02.96,1.86,1.68,2.5.72.64,1.55,1.13,2.5,1.47.95.33,1.99.5,3.12.5,2.25,0,3.98-.5,5.19-1.5,1.21-1,1.85-2.33,1.93-3.98h5.28c-.05,1.91-.59,3.58-1.63,4.99-1.03,1.41-2.47,2.49-4.32,3.23-1.85.74-4,1.11-6.46,1.11-1.81,0-3.49-.25-5.03-.74-1.54-.49-2.9-1.21-4.07-2.16-1.17-.95-2.09-2.19-2.76-3.72-.67-1.53-1-3.26-1-5.2s.33-3.68,1-5.2c.67-1.53,1.58-2.76,2.76-3.72,1.17-.95,2.53-1.67,4.07-2.16,1.54-.49,3.22-.74,5.03-.74,3.67,0,6.61.81,8.82,2.42s3.38,3.76,3.52,6.44h-5.24c-.11-1.44-.78-2.64-1.99-3.59Z"/>
    <path d="M490.73,483.26v8.28h-4.54v-8.21l-10.49-14.23h5.45l7.31,10.24,7.43-10.24h5.31l-10.47,14.17Z"/>
  </g>
</svg>